<svg xmlns="http://www.w3.org/2000/svg" width="16" height="16" viewBox="0 0 1080 1080">
   <path fill="#fff"
      d="M586 39.14h121c14.88-.12 29.47 3.76 44 6.4 14.59 2.65 38.71 6.01 51 14.01 4.81 3.12 7.83 6.48 10.66 11.45 2.9 5.1 2.46 7.86 7.4 11.49L832 89.55l15 11.59 23.91 16.31c9.24 7.81 23.17 23.82 30.66 33.55l6.55 8.99L924.57 178l9.97 15 8.54 11 7.52 11 8.93 9.09c3.87 4.44 4.61 7.43 7.42 11.91 3.92 6.24 5.95 6.82 9.74 15l16.43 44 3.65 14 4.34 14 2.78 13 4.45 15 4.49 30 1.09 16-.92 13v74l1 18-2.85 23-1.43 18-4.64 32v13l-1.12 10v8c-1.61 15.53-8.23 42.81-12.84 58l-5.35 15-4.97 20-20.49 50-10.62 26-6.34 11-5.48 12-8.66 23-21.2 37-9.54 18-10.15 14.96-8.99 10.04-9.78 13.91-14.13 14.38-10.71 12.54-9.28 7.5-13.52 13.22L803 975.58l-14 10.24-8.83 5.14-15.17 12.49c-5.69 3.69-9.1 4.18-15 6.56-11.19 4.52-24.88 8.97-37 8.99H598c-18.29-.22-36.12-4.74-54-8.2l-16-2.24-21-4.71-30-9.77-10-4.63-10-3.37-14-6.39-17-7.82-17-7.13c-7.52-3.95-9.77-7.28-14-9.66l-9-3.42c-4.78-2.07-13.27-8.89-17-8.75-2.24.08-7.58 2.66-10 3.56-13.17 4.88-24.36 15.44-37 22.22-8.38 4.49-14.76 5.05-20 7.54l-31 16.52-23 10.37-14 8.96c-14.31 8.55-20.92 12.01-37 16.63-3.87 1.11-10.08 2.81-14 3.11-3.27.24-6.82-.51-10-1.25-23.8-5.52-30.13-26.97-27.13-48.57 1.88-13.55 2.87-18.79 7.02-32l2.81-8 5.84-21 4.74-10 3.26-10 4.36-10 2.64-10 3.94-10 3.86-12c3.67-8.51 7.34-11.73 5.43-21.99-.94-5.08-8.5-10.64-11.85-15.02l-13.24-15.03-9.9-14.96-8.27-11-11.98-18-5.71-10-18.48-28-8.42-18-2.47-7-5.18-9-11.98-27-6.95-14-4.43-14-3.7-9c-3.4-10.1-9.64-42.51-10.11-53l.9-14v-38-131l1.08-16v-12l1.88-13v-11l2.62-21c3.08-20.79 8.31-43.63 18.75-62l7.14-11 5.75-10c2.71-3.9 4.98-5.69 8.03-9.09 10.08-11.25 19.83-20.33 32.75-28.38l8-4.49 22-16.12 12-5.74 23-12.92 22-10.08 20-11.84 19-9 15-8.08 50-21.72 16-4.99 17-7.64 16-5.36 11-5.01 37-9.69 29-8.43 67-11.69L559 40l8 .68 19-1.54z" />
</svg>
