<svg xmlns="http://www.w3.org/2000/svg" width="16" height="16" viewBox="0 0 1080 1080">
  <path fill="#fff"
    d="M554 13.42c10.8-1.31 16.21.56 26 .58h51c16.32.03 24.11 3.03 34.96 15.58 4.94 5.72 3.7 8.69 7.31 11.15l4.64 2.18 7.13 4.4 8.87 3.6 25 16.06c11.71 8.87 25.92 25.74 32.27 39.03l2.99 8 5.18 11.17c2.11 5.43 3.64 17.87 3.65 23.83v29l-2 22c-.03 6.55-.16 8.47-1.43 14.99l-2.14 7.18-2.18 8.83-11.16 28c-5.15 11.23-4.97 14.41-13.18 25.09-2.38 3.09-2.93 4.51-6.01 7.29-7.35 6.64-11.48 7.12-19.86 10.85-6.29 2.8-8.66 4.77-16.04 6.15l-21 1.79-21 2.61c-5.18-.57-2.73-1.76-13-1.68h-17c-3.8.63-5.79 2.14-10 1.68l-7-1.82h-7l-21-3.88-14-1.51-27-6.14c-6.16-1.86-8.69-4.23-14-6.56l-11-4.36c-11.22-5.26-26.06-16.79-34.58-25.68-10.8-11.28-11.39-15.71-19.08-27.83l-5.91-9c-8.46-16.04-8.43-37.17-8.27-55v-31l3.82-12 2.15-7c1.52-3.68 4.28-6.57 6.24-10l12.75-22 5.05-7 4.24-7 9.46-10.42 4.11-6.54 13.06-15c8.78-8.78 32.11-23.67 43.96-27.52 3.91-1.27 7-1.49 11-2.1zm-15 91.91c-6.91 1.64-9.95 3.54-15.13 8.34-14.43 13.36-13.9 32.1-13.87 50.33.01 6.12.56 11.34 3.19 17 1.72 3.71 3.99 6.12 6.82 9 7.28 7.36 14.51 10.77 24.99 8.62 5.22-1.07 12.05-6.23 14.78-10.71l3.53-7.91c5.77-12.65 4.69-16.6 4.69-30 0-3.84.25-11.61-.53-15-1.05-4.58-2.95-6.4-4.4-10-1.56-3.88-.61-5.83-2.43-10-4.09-9.34-12.6-10.68-21.64-9.67zm118 9.06c-13.32 4.17-17.94 18.91-18 31.61v11c-.02 12.95-3.37 29.51.84 42 4.47 13.23 16.81 23.39 31.16 20.33 14.93-3.18 21.42-12.9 26.37-26.33.88-2.41 1.88-4.46 2.38-7 1.71-8.52 1.26-17.36 1.25-26-.02-10.65-.91-8.78-3.96-18-2.99-9.04-4.6-18.33-13.13-24.18-4.68-3.22-21.16-4.21-26.91-3.43zM338 476l11.39 16.42c3.9 6.37 9.87 24.93 9.57 32.58l-.96 13v38c-.03 20.28-18.43 46.51-37.28 53.73-4.84 1.86-10.59 2.26-15.72 2.27-13.37.02-42.16.75-54-1.33l-11-3.75-11-2.49c-6.2-1.87-23.1-10.55-29-14.12l-10-5.41c-5.7-3.79-16.33-15.61-19.03-21.99-4.2-9.96-2.77-27.83-2.97-38.91-.15-7.79-2.11-6.78-6.55-12.09L148.04 515l-11.1-19.01-5.16-6.99-5.81-8.96-13.52-18.13c-3.02-4.76-2.89-6.87-4.84-10.82-3.5-7.1-4.51-7.52-4.61-16.09v-20c.02-15.84 7.19-23.98 18.92-33.74 2.41-2.02 4.43-4.52 7.12-6.19l6.96-3.39c27.36-14.37 43.19-21.06 72-31.73l11-4.71 16-3.35c6.27-1.92 6.49-5.68 12-8.24l14.09-4.68H270c6.56-.94 3.6-1.95 14-1.97h96l36-4h35c10.34-.02 8.44-2.41 15.96-1.95 6.82.41 13.31 5.82 24.04 5.95h20c15.41.02 14.56 4.38 24 6.63l7 1.27 12 2.81 10 .67 7 2.26c7.87 2.56 11.09 2.27 19 2.36 10.71.13 16.11 3.88 21 4.74l11 .56 14 3.26 9 .76 16 4.05 9 1.67c3.32.94 8.13 2.32 11 4.1 6.53 4.05 8.91 9.26 19 12.91 6.87 2.48 10.94 1.94 18 1.95 13.35.02 12.76 3.09 21 4.75l17 2.43 7 1.66h12c11.45.3 15.39 4.76 24.99 8.84l17.01 6.84 10 2.24 10 3.93c8.65 2.59 13.14.13 20 2.37 4.92 1.6 5.51 3.54 8.17 4.94l11.82 3.25c3.82 1.51 4.48 3.06 7.18 4.21l8.83 2.29 21 7.79 14 3.7 17.91 8.11 9.09 6.16 9 3.86 26.91 15.02 7.13 5.64c14.49 10.58 13.35 9.27 25.24 22.93 9.24 10.61 15.54 19.28 15.72 34.04v21c-.02 15.39-5.94 22.13-13.97 34.42-4.58 7.03-11.17 15.02-18.03 19.95l-8.91 5.37c-11.09 7.85-32.68 19.91-45.09 25.4l-19.99 7.4-7.18 3.87c-8.33 3.84-16.28 4.07-27.74 10.86-6 3.56-8.7 12.19-12.34 17.73-5.03 7.67-13.47 16.05-20.75 21.61-3.79 2.9-16.28 6.73-21.09 7.44H835c-5.07.93-6.67 3.57-15 4.8h-34c-4.16.1-21.09-2.73-24.91-4.09l-6.18-2.87c-8.15-3.38-16.72-6.02-23.82-11.52-2.61-2.02-4.34-4.67-6.54-7.09-9.96-10.97-15.36-17.74-15.55-33.28-.09-7.8-.27-14.25 1.08-22l1.75-9c.71-6.63.26-13.46 2.83-19.83 4.25-10.53 11.2-18.6 19.32-26.33l5.3-5.03 8.68-4.59 8.08-4.78 12.79-4.74 8.17-4.39c11.99-6.19 22.23-10.44 30-22.31l-30-5.84c-9.15-2.15-18.45-5.49-28-5.12L719 512v12c-.04 8.15-1.19 8.56-1.92 15v12c-.09 5.05-4.31 26.03-5.97 31-1.49 4.47-4.3 8.39-4.92 13l-1.36 18c-.71 7.11-1.82 7.04-1.83 16v57l-1.1 16c.79 2.93 6.38 9.45 8.54 12l19.57 19.84c4.07 3.71 6.93 5.78 10.69 10.16l7.76 9.68 11.12 8.52 12.51 11.11 5.82 3.1L790 785.3l32.04 31.53 11.87 9.62L848 838.63l19 13.97 16 13.98 12.83 10.47c2.55 2.63 8.77 11.64 11.27 12.63 3.39 1.33 13.15-2.58 18.9-2.68h39c4.9.08 9.53 1.84 14 3.78 4.8 2.09 6.37 2.56 10.28 6.16 2.04 1.88 4.18 3.72 5.65 6.1 6.71 10.86 4.49 26.23-1.45 36.87l-3.83 5.26-3.26 5.83c-2.8 4.58-9.23 12.56-13.43 15.87l-7.54 5.59-11.51 10.77-39.91 24.42-7.91 3.74-20.13 14.64-9.13 6.45-7.83 4.29c-13.32 9.16-27 18.31-41.96 24.58-8.53 3.57-7.54 5.51-19.04 5.65-13.72.16-14.49.2-26-7.37-3.81-2.51-8.75-6.28-11.73-9.72l-10.53-13.82-10.53-9.67-5.42-6.34-9.29-9.99-5.41-6.18-5.56-8.49-12.04-12.46L694.63 960l-9.45-9.96-13.82-16.21-16.83-21.81c-3.06-3.3-4.36-3.29-7.25-5.65-4.76-3.91-12.67-10.99-16.5-15.65L621.41 877l-9.81-11.04-13.4-18.92-12.27-12.08c-6.32-6.69-4.67-6.41-8.86-11.92l-6.29-7.13-9.96-14.91-5.87-8.17c-2.66-4.21-8.36-17.67-12.28-19.77-1.58-.78-13.85-.06-16.67 0V869l-1 15v19c-.09 6.02-1.95 7.9-2.71 14-.84 6.68-.14 8.45-2.21 16-2.19 8.02-3.98 9.03-6.38 15.01-3.61 8.96-7.63 23.26-12.77 30.82-7.85 11.58-9.65 10.31-19.84 16.34-11.6 6.85-21.3 11.81-35.09 11.83H323l-13-1c-10.98-.13-19.49-3.44-30-5.96l-35-8.93c-6.31-2.12-8.41-4.41-13-6.38l-26.96-9.78-13.95-9.64-15.09-9.07c-7.02-4.64-7.86-7.18-11.32-9.85l-9.68-5.64c-2.15-1.36-5.55-4.39-8-4.51-2.49-.11-5.88 2.56-8 3.85l-7.91 4.8-8.1 6.24-16.99 9.62-23 17.12c-10.54 7.6-15 13.96-29 14.13-14.62.17-27.4-5.11-32.55-20.09C19.7 966.8 19.94 961.32 20 956c.15-12.46 3.21-11.83 5.39-18.01l2.37-8.99 8.56-20 7.12-13 7.54-22 6.38-12.09 4.62-9.87 4.21-7.13 2.38-8.91 4.99-13.17 1.96-7.83 6.65-16.09L86.89 782c1.95-5.82 4.21-8.12 6.47-13l3.38-9.83c4.14-9.66 10.23-24.37 17.58-31.73 2.99-3 5.06-3.94 8.4-6.13 6.03-3.98 9.79-5.97 17.28-6.27 15.12-.61 26.71 6.61 36.94 17.13l12.48 13.46 10.16 7.88 12.51 12.42 27.08 23.18L262 802.23c9.56 5.44 23.51 16.71 35 15.31 13.62-1.66 16.77-12.6 21.88-23.54l4.4-9 3.53-12 6.56-18 4.57-31 8.41-18.83 4.39-6.21 3.23-6.87c2.37-3.77 5.78-6.57 7.49-11.09l7.7-34c2.67-10.13 4.98-10.22 6.92-17l3.63-17 2.86-8.17 2.18-8.83 2.86-8 1.1-9 5.92-16 3.21-18 2.32-8 2.74-14 2.64-10 .67-7 1.58-7 1.67-14 6.54-34-40 12.89-16 4.55c-6.9 2.15-9.64 6.52-22 7.56z" />
</svg>
