<svg xmlns="http://www.w3.org/2000/svg" width="26" height="26" viewBox="0 0 1080 1080">
  <path fill="#fff"
    d="M167 179v-57c.04-26.92 19.32-44.96 46-45h149c14.38.02 32.26 5.41 40.45 18 4.7 7.22 7.12 18.54 9.55 27 2.14 7.45 2.46 10.55 3.58 18 .38 2.55.48 6.42 2.85 7.96 2.49 1.63 13.24-.61 16.57-1.09l17-3.43 11-.9c8.04-1.42 9.04-2.53 18-2.54h101c5.64.07 24.8 3.88 30 5.93 3.46 1.36 7.05 3.44 9.96 5.75 11.99 9.5 14.57 16.19 17.92 30.32 4.04 17.02 3.09 14.8 3.12 32l3.96 39v8l2 14v17c.14 7.85 3.91 20.67 5.43 29l2.34 16c2.29 15.92 2.24 13.92 2.27 30 .02 10.04 1.35 10.05 2.73 19l2.34 15v8l3.77 20c.93 8.68 2.71 18.58 5.08 27l4.41 12c1.23 4.85 1.38 14.5 4.18 17.61 2.29 2.54 18.38 8.21 22.49 9.59l18 7.08 9 4.93 8 2.71 10 4.63 21 6.63 32 11.73 30 8.63 18 8.17 15 4.83 13 5.59 13 4.86 10 3.8 25 13.04c13.46 6.36 23.23 7.18 30.72 22.17 4.79 9.58 5.3 19.94 1.73 30-2.49 7.05-5.31 7.77-5.45 16v17c.16 13.22 7.97 22.39 8 44v216c-.12 9.72-3.25 16.03-5.4 25l-1.21 10c-1.81 10.21-7.99 23.78-16.4 30.07-8.04 6.02-13.74 6.32-22.99 8.35-8.72 1.92-29.57 5.48-38 5.58H771l-24 3h-19l-21 1-31 2h-62l-17 1h-85l-21 2h-9c-9.89.12-13.22 3.98-27 4h-29c-8.76.04-9.57 1.46-16 1.91l-23 1.3c-4.07.61-9.79 3.99-18 4.61-5.46.41-10.68-1.76-16-2.71h-9c-4.92-.54-14.31-2.94-19-4.65-7.01-2.56-10.86-6.32-17-9.75l-15-7.63-28-18.55-14-6.87-17-11.13-14-6.87-13-9.12-12-6.46-10-6.55-13-6.86-8-4.97-14-6.7-14-8.92c-4-2.92-7.67-6.31-12-8.75-7.14-4.03-12.52-1.16-23-4.88-17.73-6.28-24.2-21.84-24-39.45l1.72-15L80 820V686c.02-10.73 1.93-13.27 3.57-23l5.51-41v-12l1.83-13c1.2-17.53 1.68-35.52 8.67-52 3.21-7.57 7.79-18.22 15.42-22l-5.3-19-4.28-13-10.94-38-3.94-10-4-13-6.33-14-7.7-28-4.62-15L65 357l-5.39-25-2.74-19c-1.71-11.94-4.85-18.68-4.87-32v-49c.01-5.6.39-9.56 1.92-15 4.59-16.27 16.12-21.96 31.08-26.41 4.46-1.33 9.38-2.7 14-3.3l18-1.56 16-3.29 11-.61 23-2.83zm176-28H241v20l17-1.1h9l36-3.9 41-4-1-11zm226 63h-82l-36 4.73-26 3.7-16 3.3-20 2.59-21 5.24-26 1.61-26 3.66-24 1.34-33 3.66-37 2.26-20 2.83h-13c-8.01.18-14.26 2.61-22 3.81l-15 2.1c-6.83.66-5-.27-13 1.52-12.75 2.86-13.94.36-14 9.65v12l4.87 27 3.34 23 3.99 15 1.69 11 7.22 26 2.5 11 6.05 12 7.8 22 4.84 19 4.99 14c.83 2.89 2.36 11.18 5.14 12.24 1.67.88 5.6-.01 7.57 0l8-.7 12-2.54h9l23-3.43 31-6.49h13l21-2.08h20l16-1h107l20-2c10.76-.12 8.84.34 20-1.27l28-3.41 34 .68c20.21 0 30.75-2.16 50 6l-6.56-41-1.05-14-4.18-23 .78-13-3.36-28-2.2-8-5.43-34-1.17-32-2.83-19v-10l-2-18zm181 378l-13-5.25-17-4.96-15-5.71-23-10.63-24-8.79-12-6.39-21-7.6-32-12.31-12-3.57c-10.03-3.36-7.84-5.77-20-5.79h-45l-45 5-32 1.68-10-.68h-85l-30 2-33 1c-5.64.07-22.35 3.24-27 6l12 4.97 14 4.37 15 8.35 24 9.56 12 3.67 22 10.21 14 4.71 30 13.11h211l22-1.95h107l13-1zm-388 75.3c-4.35.82-9.13 2.03-13 4.23-13.42 7.62-20.98 24.5-21 39.47v108l-6 41v21l-3 26v23c.01 7.25 1.21 14.73 5.13 21 11.13 17.78 35.44 22.67 51.78 8.98 15.63-13.08 13.01-27.9 13.09-45.98.05-9.98 2.04-10.62 2.91-18v-24c.11-10.29 1.14-7.77 2.63-16l.76-11c1.18-8.24 2.68-7.76 2.7-18V721c.12-9.31 3.81-12.72 2.83-22-2.08-19.67-19.21-33.64-38.83-31.7z" />
</svg>
